<svg width="36" height="36" viewBox="0 0 36 36" fill="none" xmlns="http://www.w3.org/2000/svg">
<path fill-rule="evenodd" clip-rule="evenodd" d="M15.9381 3.79269C19.2574 0.189636 25.1292 3.73395 23.4875 8.34966L21.7319 13.2858H27.2278C31.1486 13.2858 33.194 17.9511 30.5375 20.8348L20.0603 32.2073C16.741 35.8104 10.8692 32.266 12.5109 27.6503L14.2665 22.7143H8.77061C4.84982 22.7143 2.80442 18.0489 5.46099 15.1653L15.9381 3.79269ZM20.661 7.34435C21.2082 5.80577 19.251 4.62435 18.1445 5.82536L7.6674 17.198C6.78188 18.1592 7.46367 19.7143 8.77061 19.7143H16.3921C16.8795 19.7143 17.3366 19.9512 17.6177 20.3495C17.8987 20.7477 17.9687 21.2577 17.8054 21.717L15.3375 28.6556C14.7902 30.1942 16.7475 31.3757 17.8539 30.1746L28.331 18.8021C29.2166 17.8409 28.5348 16.2858 27.2278 16.2858H19.6064C19.1189 16.2858 18.6619 16.0489 18.3808 15.6506C18.0998 15.2524 18.0298 14.7424 18.1931 14.2831L20.661 7.34435Z" fill="#0185EE"/>
</svg>
