<svg width="36" height="36" viewBox="0 0 36 36" fill="none" xmlns="http://www.w3.org/2000/svg">
<path fill-rule="evenodd" clip-rule="evenodd" d="M17.5257 5.57038L8.52566 8.57038C7.91314 8.77455 7.5 9.34776 7.5 9.99341V18C7.5 21.0386 9.02195 23.633 11.2265 25.8145C13.4358 28.0007 16.0954 29.526 17.7403 30.3398C17.9107 30.4242 18.0893 30.4242 18.2597 30.3398C19.9046 29.526 22.5642 28.0007 24.7735 25.8145C26.9781 23.633 28.5 21.0386 28.5 18V9.99341C28.5 9.34776 28.0869 8.77455 27.4743 8.57038L18.4743 5.57038C18.1664 5.46775 17.8336 5.46775 17.5257 5.57038ZM7.57697 5.72433C5.73944 6.33685 4.5 8.05647 4.5 9.99341V18C4.5 26.253 12.8403 31.2626 16.4099 33.0287C17.4188 33.5279 18.5812 33.5279 19.5901 33.0287C23.1597 31.2626 31.5 26.253 31.5 18V9.99341C31.5 8.05647 30.2606 6.33685 28.423 5.72433L19.423 2.72433C18.4993 2.41643 17.5007 2.41643 16.577 2.72433L7.57697 5.72433Z" fill="#0185EE"/>
</svg>
