<svg width="36" height="36" viewBox="0 0 36 36" fill="none" xmlns="http://www.w3.org/2000/svg">
<path fill-rule="evenodd" clip-rule="evenodd" d="M18 15C20.4853 15 22.5 12.9853 22.5 10.5C22.5 8.01472 20.4853 6 18 6C15.5147 6 13.5 8.01472 13.5 10.5C13.5 12.9853 15.5147 15 18 15ZM18 18C22.1421 18 25.5 14.6421 25.5 10.5C25.5 6.35786 22.1421 3 18 3C13.8579 3 10.5 6.35786 10.5 10.5C10.5 14.6421 13.8579 18 18 18Z" fill="#0185EE"/>
<path fill-rule="evenodd" clip-rule="evenodd" d="M13.5 24C10.1863 24 7.5 26.6863 7.5 30V31.5C7.5 32.3284 6.82843 33 6 33C5.17157 33 4.5 32.3284 4.5 31.5V30C4.5 25.0294 8.52944 21 13.5 21H22.5C27.4706 21 31.5 25.0294 31.5 30V31.5C31.5 32.3284 30.8284 33 30 33C29.1716 33 28.5 32.3284 28.5 31.5V30C28.5 26.6863 25.8137 24 22.5 24H13.5Z" fill="#0185EE"/>
</svg>
