<svg width="79" height="22" viewBox="0 0 79 22" fill="none" xmlns="http://www.w3.org/2000/svg">
<path d="M75.464 15.5125H73.1867C72.7152 15.5125 72.3222 15.2005 72.3222 14.8104C72.3222 14.3424 72.7152 14.1083 73.1867 14.1083H77.3484L78.2914 12.0037H73.1867C71.0665 12.0037 69.8878 13.2502 69.8878 14.8884C69.8878 16.5266 71.0665 17.6171 72.8723 17.6171H75.1496C75.6211 17.6171 76.0141 17.9292 76.0141 18.3192C76.0141 18.7093 75.6997 19.0213 75.1496 19.0213H70.1235V21.1259H75.1496C77.2698 21.1259 78.4485 19.8794 78.4485 18.1632C78.4485 16.447 77.3484 15.5125 75.464 15.5125ZM66.2761 15.5125H63.9988C63.5273 15.5125 63.1344 15.2005 63.1344 14.8104C63.1344 14.3424 63.5273 14.1083 63.9988 14.1083H68.1605L69.1035 12.0037H63.9988C61.8787 12.0037 60.7016 13.2502 60.7016 14.8884C60.7016 16.5266 61.8787 17.6171 63.6861 17.6171H65.9634C66.435 17.6171 66.8279 17.9292 66.8279 18.3192C66.8279 18.7093 66.5135 19.0213 65.9634 19.0213H60.9373V21.1259H65.9634C68.0836 21.1259 69.2607 19.8794 69.2607 18.1632C69.3393 16.4486 68.2408 15.5125 66.2761 15.5125ZM51.7495 21.2023H59.603V19.0977H54.2626V17.6171H59.5244V15.5125H54.2626V14.0319H59.603V11.9273H51.7495V21.2039V21.2023ZM46.8805 15.9025H44.2889V14.0319H46.8805C47.5878 14.0319 47.9807 14.5 47.9807 14.9681C47.9807 15.5141 47.5878 15.9042 46.8805 15.9042M50.4921 14.89C50.4921 13.0975 49.2348 11.9273 47.1932 11.9273H41.7742V21.2039H44.2872V18.0088H45.2303L48.0577 21.2039H51.0422L47.9791 17.8528C49.5491 17.4627 50.4921 16.3722 50.4921 14.89ZM37.064 16.0602H34.3938V14.0336H37.064C37.7713 14.0336 38.1642 14.5016 38.1642 15.0477C38.1642 15.5938 37.8499 16.0618 37.064 16.0618M37.3784 11.9306H31.9593V21.2072H34.4724V18.1664H37.3784C39.4985 18.1664 40.7559 16.8419 40.7559 15.0477C40.6773 13.1771 39.4216 11.9289 37.3784 11.9289M31.4894 11.9289H28.2707L25.9149 14.7357L23.4804 11.9289H20.1815L24.3432 16.5282L20.1029 21.2056H23.3216L25.8346 18.2428L28.3477 21.2056H31.645L27.4047 16.4502L31.4878 11.9289H31.4894ZM11.9366 21.2056H19.7885V19.1009H14.3695V17.6204H19.6314V15.5157H14.3695V14.0352H19.7885V11.9306H11.9366V21.2072V21.2056ZM74.521 5.68981L70.6736 0.0780094H67.5319V9.27662H70.0449V3.42916L73.9709 9.27499H76.9554V0.0780094H74.521V5.69144V5.68981ZM60.0713 5.37777L61.4055 2.25902L62.7398 5.37777H60.0696H60.0713ZM59.7569 0.0763842L55.6738 9.353H58.4226L59.2085 7.4824H63.5273L64.3132 9.353H67.1406L62.9789 0.0780094H59.7586L59.7569 0.0763842ZM51.5907 4.7537V4.59768C51.5907 3.19514 52.3765 2.25902 53.9466 2.25902H56.6954V0H53.7108C50.6477 0 49.0776 1.94861 49.0776 4.5213V4.67731C49.0776 7.56204 50.8834 9.19861 53.6322 9.19861H54.4967L55.5166 7.09398H54.0252C52.5337 7.17199 51.5907 6.31389 51.5907 4.75532M45.3088 9.27662H47.8219V0.0780094H45.3088V9.27662ZM40.4399 3.97523H37.8482V2.10463H40.4399C41.1471 2.10463 41.5401 2.57269 41.5401 3.04074C41.5401 3.58681 41.1471 3.97685 40.4399 3.97685M44.0515 3.04074C44.0515 1.24815 42.7941 0.0780094 40.7542 0.0780094H35.3352V9.35463H37.8482V6.08148H38.7912L41.6186 9.27824H44.6818L41.5417 5.92709C43.1117 5.61505 44.0548 4.44654 44.0548 3.04237M25.8363 9.27824H33.6882V7.17362H28.3477V5.69306H33.531V3.58843H28.3477V2.10788H33.6882V0.0780094H25.8363V9.27662V9.27824ZM17.9058 5.84746L15.784 0.0780094H11.9366V9.27662H14.3711V2.65069L16.8056 9.27662H19.0043L21.4388 2.65069V9.27662H23.9519V0.0780094H20.0259L17.9058 5.84583V5.84746ZM4.39909 5.3794L5.73339 2.26065L7.06769 5.3794H4.39745H4.39909ZM4.08312 0.0780094L0 9.27662H2.74882L3.53466 7.40602H7.85353L8.63938 9.27662H11.4668L7.30344 0.0780094H4.08312Z" fill="#006FCF"/>
</svg>
