<svg width="67" height="28" viewBox="0 0 67 28" fill="none" xmlns="http://www.w3.org/2000/svg">
<path fill-rule="evenodd" clip-rule="evenodd" d="M12.1771 3.55216C11.396 4.4828 10.1462 5.21682 8.89652 5.11196C8.74031 3.85363 9.35215 2.51666 10.0681 1.69088C10.8492 0.734025 12.2161 0.0524304 13.3226 0C13.4528 1.31076 12.9451 2.5953 12.1771 3.55216ZM13.3098 5.36082C12.2088 5.29702 11.2042 5.69421 10.3927 6.01503C9.87055 6.22149 9.42836 6.39632 9.09194 6.39632C8.71442 6.39632 8.25397 6.21214 7.73699 6.00535L7.73698 6.00535C7.05957 5.73438 6.2851 5.4246 5.47294 5.43947C3.61137 5.46568 1.87997 6.52739 0.92966 8.21827C-1.02304 11.6 0.421958 16.6071 2.30957 19.3597C3.23385 20.7229 4.34038 22.2172 5.79839 22.1647C6.43983 22.1404 6.90124 21.9432 7.37876 21.7392C7.92852 21.5043 8.49962 21.2603 9.39136 21.2603C10.2522 21.2603 10.7983 21.498 11.3226 21.7261C11.821 21.943 12.2997 22.1513 13.0104 22.1385C14.5204 22.1123 15.4708 20.7753 16.395 19.4121C17.3925 17.9491 17.8308 16.5212 17.8973 16.3045L17.9051 16.2794C17.9035 16.2778 17.8912 16.2722 17.8696 16.2622L17.8695 16.2621L17.8695 16.2621C17.536 16.1084 14.9875 14.9337 14.9631 11.7835C14.9385 9.13944 16.9845 7.79977 17.3066 7.58889C17.3262 7.57606 17.3394 7.5674 17.3454 7.56289C16.0436 5.62297 14.0127 5.41325 13.3098 5.36082ZM23.7636 21.9946V1.55994H31.3792C35.3106 1.55994 38.0574 4.28632 38.0574 8.27102C38.0574 12.2557 35.2585 15.0083 31.275 15.0083H26.914V21.9946H23.7636ZM26.9133 4.23409H30.5453C33.2791 4.23409 34.8413 5.70214 34.8413 8.28433C34.8413 10.8665 33.2791 12.3477 30.5323 12.3477H26.9133V4.23409ZM48.4584 19.5435C47.6252 21.1426 45.7897 22.1519 43.811 22.1519C40.8819 22.1519 38.8381 20.3954 38.8381 17.7477C38.8381 15.1262 40.8168 13.6188 44.4749 13.396L48.4063 13.1601V12.0328C48.4063 10.3682 47.3258 9.46373 45.3992 9.46373C43.811 9.46373 42.6524 10.2895 42.418 11.5478H39.5801C39.6712 8.90011 42.1447 6.9733 45.4903 6.9733C49.0963 6.9733 51.4395 8.87389 51.4395 11.8231V21.9946H48.5235V19.5435H48.4584ZM44.6571 19.7271C42.9778 19.7271 41.9103 18.9144 41.9103 17.6692C41.9103 16.3846 42.9387 15.6375 44.9044 15.5195L48.4063 15.2967V16.4502C48.4063 18.3639 46.792 19.7271 44.6571 19.7271ZM61.1117 22.7944C59.8489 26.3728 58.404 27.5525 55.3317 27.5525C55.0974 27.5525 54.3163 27.5263 54.134 27.4738V25.0227C54.3293 25.0489 54.811 25.0752 55.0583 25.0752C56.4513 25.0752 57.2323 24.4853 57.714 22.9517L58.0004 22.0473L52.663 7.17021H55.9566L59.6667 19.2423H59.7318L63.4419 7.17021H66.6444L61.1117 22.7944Z" fill="black"/>
</svg>
