<svg width="77" height="17" viewBox="0 0 77 17" fill="none" xmlns="http://www.w3.org/2000/svg">
<path d="M15.7653 10.0654C14.702 14.4097 10.364 17.0583 6.07562 15.981C1.78727 14.9031 -0.826192 10.5078 0.237039 6.16356C1.30027 1.81865 5.63834 -0.829988 9.92668 0.24796C9.93418 0.25003 9.94099 0.251411 9.94848 0.253481C14.2252 1.34109 16.8271 5.72949 15.7653 10.0654Z" fill="#F7931A"/>
<path d="M9.81635 6.93473C9.56638 7.94781 8.04134 7.42884 7.54685 7.30462L7.98413 5.53174C8.47181 5.6532 10.0663 5.88645 9.80886 6.93473H9.81635ZM9.5439 9.79937C9.27417 10.9035 7.43923 10.3059 6.84393 10.1562L7.32616 8.19832C7.92147 8.35014 9.82588 8.64688 9.54322 9.79937H9.5439ZM11.5437 6.94991C11.701 5.87058 10.8912 5.29089 9.79387 4.90581L10.1535 3.44416L9.266 3.22126L8.9159 4.64495C8.68568 4.58698 8.44865 4.53108 8.21367 4.47794L8.56376 3.03907L7.68648 2.81616L7.32685 4.27781L6.76696 4.15152L5.55457 3.84511L5.3223 4.7947C5.3223 4.7947 5.97209 4.94653 5.95983 4.95688C6.20776 4.98724 6.38894 5.21084 6.36987 5.46342L5.95983 7.12727C5.99048 7.13417 6.02113 7.14452 6.04974 7.15763L5.95711 7.1321L5.38429 9.46466C5.33048 9.63512 5.15066 9.72897 4.98174 9.67515C4.98174 9.68757 4.34149 9.51573 4.34149 9.51573L3.90625 10.5288L5.04849 10.8152L5.67308 10.9801L5.31072 12.457L6.18801 12.6799L6.54764 11.2182C6.78399 11.2838 7.01693 11.3445 7.24511 11.4004L6.89025 12.8669L7.76753 13.087L8.12989 11.613C9.62972 11.8994 10.7522 11.7848 11.227 10.4122C11.6097 9.30801 11.2072 8.67242 10.4198 8.25697C10.9947 8.12309 11.4197 7.75043 11.5423 6.94991H11.5437Z" fill="white"/>
<path d="M20.827 13.6766C21.2943 13.6779 21.7541 13.5572 22.162 13.3267C22.5816 13.0996 22.9515 12.7877 23.2471 12.4095C23.5549 12.01 23.7974 11.5628 23.9643 11.0852C24.1407 10.5911 24.2299 10.0701 24.2292 9.54557C24.2572 9.01281 24.1448 8.48212 23.9044 8.00801C23.6891 7.64088 23.2893 7.45317 22.7097 7.45317C22.457 7.46214 22.2056 7.49664 21.9598 7.55668C21.6546 7.62569 21.3719 7.77407 21.1397 7.98731L19.8149 13.6L20.0274 13.6407C20.0908 13.6565 20.1555 13.6669 20.2195 13.671C20.3026 13.6814 20.3857 13.6855 20.4695 13.6835L20.827 13.6759V13.6766ZM23.4596 4.90322C24.0385 4.88942 24.6127 5.00949 25.1392 5.2531C25.5963 5.47394 25.9981 5.79691 26.3142 6.19786C26.6377 6.61261 26.8754 7.08879 27.0144 7.59809C27.1656 8.15984 27.2405 8.74022 27.2371 9.32267C27.2364 11.1356 26.543 12.8767 25.302 14.1831C24.7006 14.8083 23.9847 15.3087 23.1946 15.6572C22.3664 16.0264 21.47 16.2148 20.5648 16.2093H19.9246C19.5765 16.1975 19.2291 16.1672 18.8845 16.1182C18.4636 16.0561 18.046 15.9719 17.6346 15.8649C17.2028 15.7614 16.7839 15.6102 16.3848 15.4143L19.8973 0.506539L23.0346 0L21.7847 5.29106C22.0449 5.17167 22.3153 5.07574 22.5918 5.00466C22.8772 4.93427 23.1708 4.89908 23.4643 4.90115L23.4596 4.90391V4.90322Z" fill="#4D4D4D"/>
<path d="M31.9358 3.81651C31.5271 3.82065 31.128 3.68746 30.801 3.43902C30.4543 3.16091 30.2663 2.72614 30.3011 2.27895C30.2997 2.00014 30.3583 1.7241 30.4734 1.47083C30.5838 1.22377 30.7384 1.00087 30.9311 0.812468C31.1232 0.627519 31.3459 0.478456 31.5884 0.371489C31.8411 0.261762 32.1136 0.205863 32.388 0.206554C32.794 0.205173 33.189 0.339054 33.5133 0.586113C33.8593 0.864917 34.0466 1.29899 34.0132 1.74618C34.0152 2.02568 33.9573 2.30241 33.8436 2.55637C33.7333 2.80205 33.5793 3.02426 33.3886 3.21197C33.1972 3.39761 32.9745 3.54668 32.7313 3.65295C32.4786 3.76268 32.2062 3.81789 31.9317 3.81513H31.9365L31.9358 3.81651ZM30.4782 15.9203H27.4785L30.013 5.13047H33.0303L30.4782 15.9203Z" fill="#4D4D4D"/>
<path d="M35.6551 2.44424L38.7923 1.95288L38.0125 5.13152H41.3724L40.7669 7.63385H37.4349L36.5453 11.3977C36.4684 11.6862 36.4207 11.9815 36.403 12.2797C36.3846 12.5205 36.42 12.7627 36.5051 12.9884C36.5889 13.1906 36.7435 13.3542 36.9404 13.4466C37.223 13.5729 37.5316 13.6309 37.8401 13.6136C38.1569 13.615 38.4722 13.5833 38.7828 13.5198C39.0948 13.4577 39.4026 13.3735 39.703 13.2665L39.9278 15.6067C39.4973 15.7633 39.0573 15.8931 38.6105 15.9945C38.0588 16.1132 37.4948 16.1684 36.9308 16.1594C35.9984 16.1594 35.2784 16.0173 34.7635 15.7392C34.282 15.4907 33.8958 15.0863 33.6689 14.5894C33.4469 14.0622 33.3502 13.4894 33.3863 12.918C33.4197 12.2472 33.5143 11.5806 33.6689 10.927L35.6565 2.43527V2.44562L35.6551 2.44424Z" fill="#4D4D4D"/>
<path d="M41.2615 11.6124C41.2554 10.7173 41.4059 9.82773 41.7063 8.9858C41.9883 8.19011 42.4215 7.4579 42.9814 6.83059C43.5453 6.20881 44.2319 5.71331 44.9961 5.37654C45.8298 5.01216 46.7303 4.82997 47.6382 4.84239C48.1865 4.83549 48.7334 4.89415 49.2681 5.01699C49.7177 5.12465 50.155 5.27923 50.5732 5.47798L49.531 7.85126C49.2613 7.74015 48.9807 7.64423 48.6912 7.55521C48.3452 7.4579 47.9876 7.41235 47.6287 7.42133C46.7221 7.3882 45.8503 7.77604 45.2611 8.47512C44.676 9.17213 44.3824 10.1093 44.3811 11.2866C44.3538 11.8836 44.5091 12.4743 44.8259 12.9788C45.1221 13.4094 45.6691 13.624 46.466 13.624C46.8474 13.624 47.2282 13.5826 47.6007 13.4998C47.9331 13.428 48.2587 13.3252 48.5734 13.1934L48.7961 15.635C48.3874 15.7916 47.9699 15.9255 47.5463 16.0346C47.0082 16.1574 46.4578 16.2154 45.9061 16.2071C45.1739 16.2285 44.4458 16.1036 43.7613 15.84C43.217 15.6177 42.7273 15.2782 42.3261 14.8448C41.9454 14.4245 41.6641 13.9221 41.504 13.3756C41.3344 12.8007 41.25 12.2031 41.254 11.6027L41.2615 11.613V11.6124Z" fill="#4D4D4D"/>
<path d="M56.064 7.43126C55.641 7.42505 55.2275 7.56169 54.889 7.8191C54.5457 8.08824 54.2576 8.42294 54.0417 8.80457C53.804 9.21036 53.6255 9.64926 53.5118 10.1068C53.4021 10.5457 53.3449 10.9957 53.3422 11.4491C53.3149 12.0018 53.426 12.5519 53.665 13.0501C53.8823 13.4324 54.2726 13.625 54.84 13.625C55.2636 13.6326 55.6778 13.4952 56.0149 13.2351C56.3589 12.9659 56.6477 12.6312 56.865 12.2503C57.0993 11.8438 57.2736 11.4056 57.3826 10.948C57.4916 10.5084 57.5488 10.0571 57.5522 9.60303C57.5801 9.05094 57.4691 8.49954 57.2294 8.00198C57.0121 7.62242 56.6191 7.42988 56.0544 7.42988L56.0646 7.43264L56.064 7.43126ZM54.5641 16.2094C53.9273 16.2246 53.2938 16.1121 52.6992 15.8802C52.1993 15.6801 51.7524 15.3647 51.3942 14.9583C51.042 14.549 50.7771 14.0701 50.6143 13.5525C50.4379 12.9721 50.3527 12.3669 50.3643 11.7596C50.3664 10.9232 50.4985 10.0923 50.7573 9.298C51.008 8.49816 51.3996 7.75147 51.9118 7.09172C52.4268 6.43267 53.067 5.88473 53.7938 5.48101C54.5764 5.05453 55.4543 4.83921 56.3439 4.85508C56.9773 4.84335 57.6067 4.95515 58.1986 5.18427C58.6992 5.38095 59.1488 5.69219 59.5111 6.09383C59.8612 6.50444 60.1255 6.98269 60.289 7.49958C60.4667 8.08065 60.5512 8.68656 60.5389 9.29524C60.5362 10.131 60.4075 10.9612 60.1561 11.7569C59.9096 12.5574 59.5254 13.3075 59.0214 13.9728C58.514 14.6346 57.8764 15.1826 57.149 15.5814C56.3541 16.01 55.4646 16.2267 54.5641 16.2094Z" fill="#4D4D4D"/>
<path d="M65.2749 3.81656C64.8669 3.8207 64.4684 3.6882 64.1428 3.43907C63.7955 3.16096 63.6081 2.72619 63.6429 2.279C63.6415 2.0002 63.7001 1.72416 63.8152 1.47089C63.9221 1.22521 64.0734 1.0023 64.26 0.812523C64.4534 0.628264 64.6761 0.479201 64.92 0.371544C65.172 0.261817 65.4431 0.205918 65.7176 0.206608C66.1263 0.203157 66.5261 0.337038 66.8523 0.586167C67.1983 0.864971 67.3857 1.29905 67.3523 1.74624C67.3523 2.02642 67.293 2.30247 67.1772 2.55643C67.0689 2.8021 66.915 3.02501 66.725 3.21203C66.5336 3.39767 66.3108 3.54673 66.0677 3.65301C65.817 3.76204 65.5473 3.81725 65.2749 3.81518V3.81656ZM63.82 15.9204H60.8203L63.35 5.13053H66.3694L63.8193 15.9204H63.82Z" fill="#4D4D4D"/>
<path d="M68.5308 5.62215C68.7583 5.55659 69.011 5.47516 69.2808 5.38683C69.5505 5.29849 69.8658 5.21706 70.2132 5.13356C70.594 5.05143 70.9788 4.99001 71.3657 4.94861C71.8465 4.89685 72.3295 4.8727 72.8131 4.87546C74.3933 4.87546 75.4824 5.34059 76.0824 6.27085C76.4414 6.82846 76.6233 7.50822 76.628 8.31081V8.36878C76.6253 8.8905 76.5483 9.46398 76.3978 10.0878L75.0206 15.913H72.0107L73.3477 10.2093C73.4274 9.85528 73.4928 9.51022 73.5405 9.17345C73.5923 8.88153 73.5923 8.58341 73.5405 8.29218C73.4908 8.04857 73.358 7.83119 73.1659 7.6766C72.8989 7.49925 72.5815 7.41643 72.2634 7.44128C71.8629 7.44197 71.4631 7.48337 71.0708 7.5655L69.1057 15.9234H66.0781L68.5308 5.62284V5.62215Z" fill="#4D4D4D"/>
</svg>
