<svg width="62" height="26" viewBox="0 0 62 26" fill="none" xmlns="http://www.w3.org/2000/svg">
<path fill-rule="evenodd" clip-rule="evenodd" d="M55.6123 16.3468H55.6562L59.2637 7.29112H61.7988L54.0039 25.4464H51.5986L54.4971 19.0958L49.3818 7.29112H51.918L55.6123 16.3468ZM43.4131 6.87998C45.1371 6.88005 46.4993 7.35044 47.499 8.27647C48.4986 9.20255 48.9912 10.4965 48.9912 12.128V19.9044H46.7598V18.1544H46.6582C45.6874 19.595 44.412 20.3155 42.8037 20.3155C41.442 20.3154 40.2828 19.9042 39.3701 19.0812C38.4719 18.3168 37.9653 17.1848 37.9941 15.9942C37.9941 14.6859 38.4862 13.6561 39.457 12.8771C40.4278 12.0981 41.7319 11.716 43.3545 11.7159C44.7455 11.7159 45.8761 11.9808 46.7744 12.4806V11.9366C46.7744 11.1281 46.4269 10.3633 45.8184 9.83408C45.1954 9.27553 44.3981 8.96694 43.5723 8.9669C42.2684 8.9669 41.2397 9.52579 40.4863 10.6427L38.4287 9.33506C39.5299 7.70337 41.1962 6.87998 43.4131 6.87998ZM32.3564 1.4708C33.8488 1.4414 35.2978 2.01495 36.3555 3.07334C38.4709 5.07254 38.6012 8.43882 36.6162 10.5997L36.3555 10.8644C35.2688 11.9078 33.9356 12.4366 32.3564 12.4366H28.5029V19.9044H26.1699V1.4708H32.3564ZM43.7168 13.628C42.7751 13.6281 41.9783 13.8629 41.3408 14.3185C40.7177 14.7741 40.3985 15.3474 40.3984 16.0382C40.3984 16.6556 40.6888 17.2293 41.167 17.5821C41.6886 17.9936 42.3265 18.214 42.9785 18.1993C43.9638 18.1992 44.9061 17.8023 45.6016 17.0968C46.3694 16.3619 46.7606 15.4946 46.7607 14.4952C46.0362 13.9072 45.021 13.6133 43.7168 13.628ZM28.5029 10.173H32.415C33.2845 10.2023 34.1256 9.84991 34.7197 9.21787C35.937 7.939 35.9082 5.88041 34.6475 4.64561C34.0533 4.05761 33.2556 3.73448 32.415 3.73448H28.5029V10.173Z" fill="#3C4043"/>
<path d="M20.4476 10.8195C20.4476 10.0992 20.3897 9.37894 20.2738 8.67334H10.4355V12.7452H16.0719C15.8401 14.0535 15.0866 15.2295 13.9854 15.9645V18.6105H17.3469C19.3175 16.773 20.4476 14.0535 20.4476 10.8195Z" fill="#4285F4"/>
<path d="M10.4377 21.1682C13.2486 21.1682 15.6249 20.2274 17.3491 18.6104L13.9876 15.9644C13.0458 16.6112 11.8432 16.9787 10.4377 16.9787C7.71372 16.9787 5.40992 15.1118 4.58403 12.6128H1.12109V15.347C2.88879 18.9191 6.49662 21.1682 10.4377 21.1682Z" fill="#34A853"/>
<path d="M4.58297 12.6131C4.14822 11.3048 4.14822 9.87891 4.58297 8.55592V5.83643H1.11948C-0.373159 8.82051 -0.373159 12.3485 1.11948 15.3326L4.58297 12.6131Z" fill="#FBBC04"/>
<path d="M10.4377 4.19012C11.9301 4.16073 13.3645 4.73402 14.4367 5.77772L17.4215 2.74953C15.5234 0.956136 13.0313 -0.0287601 10.4377 0.000639756C6.49662 0.000639756 2.88879 2.26443 1.12109 5.83652L4.58403 8.57071C5.40992 6.05702 7.71372 4.19012 10.4377 4.19012Z" fill="#EA4335"/>
</svg>
