<svg width="71" height="43" viewBox="0 0 71 43" fill="none" xmlns="http://www.w3.org/2000/svg">
<path d="M48.9658 0C60.7373 2.95379e-05 70.2803 9.42911 70.2803 21.0605C70.2803 32.692 60.7373 42.1211 48.9658 42.1211C43.6893 42.1211 38.8618 40.2251 35.1396 37.0869C31.4176 40.2249 26.5907 42.121 21.3145 42.1211C9.54292 42.1211 0 32.692 0 21.0605C3.54696e-05 9.42912 9.54294 0 21.3145 0C26.5905 4.93032e-05 31.4177 1.89552 35.1396 5.0332C38.8618 1.89524 43.6895 0 48.9658 0Z" fill="#ED0006"/>
<path d="M48.9658 0C60.7373 3.10657e-05 70.2803 9.42911 70.2803 21.0605C70.2803 32.692 60.7373 42.1211 48.9658 42.1211C43.6898 42.1211 38.8627 40.2256 35.1406 37.0879C39.7229 33.225 42.6299 27.4787 42.6299 21.0605C42.6299 14.6421 39.7232 8.89513 35.1406 5.03223C38.8626 1.8948 43.69 0 48.9658 0Z" fill="#F9A000"/>
<path d="M35.1406 5.03296C39.7229 8.89586 42.6299 14.6421 42.6299 21.0603C42.6299 27.4783 39.7227 33.2238 35.1406 37.0867C30.5589 33.2238 27.6523 27.478 27.6523 21.0603C27.6523 14.6424 30.5586 8.89585 35.1406 5.03296Z" fill="#FF5E00"/>
</svg>
