<svg width="82" height="33" viewBox="0 0 82 33" fill="none" xmlns="http://www.w3.org/2000/svg">
<path d="M31.4043 11.9847H27.3582C27.0814 11.9847 26.8459 12.179 26.8026 12.4435L25.1662 22.476C25.1375 22.6539 25.2633 22.8206 25.4474 22.8486C25.4646 22.8511 25.4822 22.8525 25.5 22.8525H27.4316C27.7087 22.8525 27.9443 22.6576 27.9873 22.3931L28.4288 19.6871C28.4715 19.4229 28.707 19.2279 28.9838 19.2276H30.2647C32.9301 19.2276 34.4683 17.9806 34.87 15.5091C35.0511 14.4278 34.8776 13.5783 34.3541 12.9833C33.7789 12.3301 32.759 11.9844 31.4049 11.9844L31.4043 11.9847ZM31.871 15.6489C31.6498 17.0527 30.5403 17.0527 29.4677 17.0527H28.8571L29.2855 14.431C29.3115 14.2725 29.4525 14.1557 29.6184 14.1557H29.8981C30.6287 14.1557 31.318 14.1557 31.6741 14.5585C31.8865 14.7987 31.9515 15.1558 31.8704 15.6489H31.871ZM43.4991 15.6036H41.5616C41.3957 15.6036 41.2544 15.7204 41.2287 15.8789L41.1429 16.4028L41.0075 16.213C40.5879 15.6243 39.6525 15.4276 38.7189 15.4276C36.5778 15.4276 34.7488 16.9958 34.3928 19.1954C34.2076 20.2925 34.4709 21.3418 35.1146 22.0734C35.705 22.7462 36.55 23.0265 37.555 23.0265C39.2804 23.0265 40.2368 21.954 40.2368 21.954L40.1505 22.4746C40.1209 22.6525 40.2465 22.8197 40.4302 22.848C40.4478 22.8508 40.4653 22.852 40.4829 22.852H42.2281C42.5052 22.852 42.7407 22.6571 42.7837 22.3925L43.8309 15.9802C43.8604 15.8031 43.7355 15.6361 43.5524 15.6079C43.5348 15.605 43.517 15.6036 43.4991 15.6036ZM40.7983 19.25C40.6113 20.3202 39.7327 21.0388 38.6121 21.0388C38.0495 21.0388 37.5998 20.8643 37.311 20.5336C37.0245 20.2051 36.9157 19.7377 37.007 19.2172C37.1817 18.156 38.0749 17.4139 39.1782 17.4139C39.7286 17.4139 40.1757 17.5907 40.4703 17.9243C40.7655 18.2612 40.8825 18.7314 40.798 19.2497L40.7983 19.25ZM53.8185 15.6036H51.8713C51.685 15.6039 51.5106 15.6933 51.4058 15.8421L48.7205 19.667L47.5821 15.9915C47.5104 15.7612 47.2913 15.6036 47.0426 15.6036H45.1291C44.9427 15.603 44.7914 15.7487 44.7909 15.929C44.7909 15.9652 44.797 16.0008 44.809 16.035L46.9536 22.1207L44.9374 24.8728C44.8295 25.0196 44.8652 25.2233 45.017 25.3274C45.0741 25.3667 45.1425 25.3877 45.2125 25.3877H47.1573C47.3416 25.3877 47.5142 25.3008 47.6193 25.1543L54.0953 16.1154C54.2015 15.9674 54.1634 15.7643 54.0104 15.6616C53.954 15.6237 53.887 15.6033 53.8182 15.6033L53.8185 15.6036Z" fill="#253B80"/>
<path d="M60.2638 11.9847H56.2171C55.9406 11.9847 55.7051 12.1793 55.6621 12.4436L54.0256 22.476C53.9967 22.6537 54.1219 22.8203 54.3054 22.8483C54.3229 22.8509 54.3405 22.8523 54.358 22.8523H56.4348C56.6285 22.8523 56.7929 22.7157 56.823 22.5309L57.2874 19.6871C57.3301 19.4229 57.5656 19.228 57.8424 19.2277H59.1227C61.7887 19.2277 63.3263 17.9806 63.7286 15.5092C63.9103 14.4279 63.7356 13.5783 63.2122 12.9834C62.6378 12.3301 61.6182 11.9844 60.2641 11.9844L60.2638 11.9847ZM60.7305 15.6489C60.5099 17.0527 59.4004 17.0527 58.3272 17.0527H57.7172L58.1461 14.431C58.1715 14.2726 58.3126 14.1557 58.4785 14.1557H58.7582C59.4882 14.1557 60.1781 14.1557 60.5341 14.5586C60.7466 14.7988 60.8109 15.1558 60.7299 15.6489H60.7305ZM72.358 15.6036H70.4217C70.2558 15.6031 70.1145 15.7202 70.0893 15.8789L70.0036 16.4029L69.8675 16.213C69.448 15.6243 68.5132 15.4277 67.5795 15.4277C65.4384 15.4277 63.6104 16.9958 63.254 19.1954C63.0694 20.2926 63.3315 21.3419 63.9752 22.0735C64.5668 22.7462 65.4106 23.0266 66.4156 23.0266C68.141 23.0266 69.0974 21.9541 69.0974 21.9541L69.0111 22.4746C68.9816 22.6526 69.1071 22.8198 69.2908 22.8481C69.3087 22.8509 69.3268 22.8523 69.3447 22.852H71.0894C71.3661 22.852 71.6014 22.6571 71.6444 22.3926L72.6921 15.9802C72.7205 15.802 72.5941 15.6351 72.4098 15.6076C72.3925 15.6051 72.3752 15.6036 72.358 15.6039V15.6036ZM69.6572 19.25C69.4714 20.3203 68.5916 21.0389 67.471 21.0389C66.9095 21.0389 66.4586 20.8643 66.1699 20.5336C65.8834 20.2051 65.7758 19.7378 65.8659 19.2172C66.0417 18.156 66.9338 17.414 68.0371 17.414C68.5875 17.414 69.0345 17.5908 69.3292 17.9243C69.6256 18.2613 69.7426 18.7315 69.6569 19.2498L69.6572 19.25ZM74.6422 12.26L72.9815 22.476C72.9525 22.6537 73.0777 22.8203 73.2612 22.8483C73.2787 22.8509 73.2963 22.8523 73.3139 22.8523H74.9833C75.2607 22.8523 75.4962 22.6577 75.5389 22.3929L77.1765 12.361C77.2055 12.183 77.08 12.0161 76.8959 11.9881C76.8787 11.9855 76.8614 11.9841 76.8439 11.9841H74.9743C74.8084 11.9847 74.6676 12.1015 74.6419 12.26H74.6422Z" fill="#179BD7"/>
<path d="M8.36244 24.8023L8.67199 22.9017L7.98267 22.8862H4.69141L6.97852 8.8633C6.99257 8.77475 7.07156 8.7094 7.16431 8.70996H12.714C14.5564 8.70996 15.8277 9.08057 16.4915 9.81245C16.8029 10.1556 17.0009 10.5143 17.0969 10.909C17.1976 11.3232 17.1993 11.818 17.101 12.4217L17.094 12.4658V12.8526L17.4053 13.0232C17.6429 13.1394 17.8564 13.297 18.0355 13.4877C18.3018 13.7811 18.4738 14.1542 18.5466 14.5964C18.6218 15.0513 18.597 15.5925 18.4738 16.205C18.3319 16.9098 18.1022 17.5237 17.7924 18.0258C17.5188 18.4759 17.151 18.8655 16.7127 19.1699C16.3011 19.4525 15.8116 19.667 15.2586 19.8045C14.7226 19.9394 14.1114 20.0076 13.4411 20.0076H13.0092C12.7003 20.0076 12.4004 20.1151 12.1648 20.308C11.9296 20.503 11.7737 20.772 11.7248 21.0676L11.6923 21.2388L11.1458 24.5884L11.1209 24.7115C11.1145 24.7505 11.1031 24.7698 11.0867 24.7831C11.0706 24.7958 11.0507 24.8029 11.0299 24.8031H8.36332L8.36244 24.8023Z" fill="#253B80"/>
<path d="M17.6995 12.5103C17.6829 12.6127 17.6641 12.7173 17.6428 12.8248C16.911 16.4582 14.4071 17.7132 11.2092 17.7132H9.58097C9.18978 17.7132 8.86034 17.9879 8.79948 18.3608L7.96591 23.4729L7.7298 24.922C7.69381 25.1418 7.84888 25.348 8.07621 25.3828C8.09757 25.3862 8.11922 25.3876 8.14117 25.3876H11.029C11.371 25.3876 11.6615 25.1474 11.7154 24.8212L11.7437 24.6795L12.2874 21.3432L12.3222 21.1601C12.3754 20.8328 12.6665 20.5926 13.0086 20.5926H13.4404C16.2384 20.5926 18.4287 19.4944 19.0688 16.3159C19.3362 14.9882 19.1979 13.8795 18.4901 13.0998C18.2657 12.8585 17.998 12.6591 17.6995 12.5105V12.5103Z" fill="#179BD7"/>
<path d="M16.9338 12.2149C16.7 12.1496 16.4624 12.0987 16.2219 12.0622C15.7471 11.9917 15.2669 11.9578 14.7865 11.9609H10.4367C10.0947 11.9609 9.80356 12.2016 9.75089 12.5284L8.82545 18.1953L8.79883 18.3605C8.85851 17.9877 9.1903 17.7127 9.58032 17.713H11.2085C14.4065 17.713 16.9101 16.4571 17.6421 12.8246C17.6641 12.7171 17.6825 12.6124 17.6989 12.51C17.5058 12.4121 17.3045 12.3301 17.0971 12.2647C17.0426 12.2472 16.9882 12.2308 16.9332 12.2149H16.9338Z" fill="#222D65"/>
<path d="M9.7507 12.5283C9.80278 12.2013 10.0942 11.9602 10.4365 11.9614H14.7863C15.3016 11.9614 15.7826 11.9939 16.2217 12.0627C16.5187 12.1079 16.8119 12.1753 17.098 12.2647C17.314 12.334 17.5147 12.4157 17.6999 12.5099C17.9175 11.1673 17.6981 10.2532 16.9473 9.4254C16.119 8.51415 14.6251 8.12402 12.7137 8.12402H7.16397C6.77338 8.12402 6.44042 8.39873 6.38015 8.77216L4.06845 22.9396C4.0272 23.1911 4.2048 23.4273 4.4649 23.4672C4.48948 23.4709 4.51405 23.4729 4.53892 23.4729H7.96507L8.82526 18.1955L9.7507 12.5286V12.5283Z" fill="#253B80"/>
</svg>
