<svg width="71" height="17" viewBox="0 0 71 17" fill="none" xmlns="http://www.w3.org/2000/svg">
<path fill-rule="evenodd" clip-rule="evenodd" d="M33.8576 4.8479C34.5172 4.03048 35.5432 3.354 36.7608 3.354C39.5062 3.354 41.6653 5.62585 41.6653 8.4276C41.6653 11.3477 39.4949 13.5068 36.8905 13.5068C35.5037 13.5068 34.4439 12.7965 34.0549 12.2046H34.0154V16.4946C34.0154 16.4946 34.0042 16.5453 33.9873 16.5623C33.9703 16.5792 33.9422 16.5904 33.9196 16.5904H31.4786C31.4786 16.5904 31.4279 16.5792 31.411 16.5623C31.3941 16.5453 31.3828 16.5172 31.3828 16.4946V3.45548C31.3828 3.45548 31.3941 3.40474 31.411 3.38783C31.4279 3.37092 31.4561 3.35964 31.4786 3.35964H33.7618C33.7618 3.35964 33.8125 3.37092 33.8294 3.38783C33.8463 3.40474 33.8576 3.43293 33.8576 3.45548V4.85353V4.8479ZM36.5522 11.0208C36.3493 11.0264 36.1464 11.0095 35.9434 10.97C35.4417 10.8629 34.9794 10.6149 34.6186 10.2428C34.2578 9.87639 34.0154 9.40849 33.9252 8.90113C33.8971 8.75456 33.8858 8.60799 33.8801 8.46142C33.8801 8.29794 33.8914 8.13446 33.9196 7.97097C34.0098 7.46361 34.2522 6.99572 34.613 6.62929C34.9738 6.26286 35.4304 6.00918 35.9378 5.90207C36.1407 5.85698 36.3437 5.84006 36.5466 5.8457C36.8792 5.8457 37.2062 5.91899 37.5106 6.04864C37.8206 6.1783 38.0969 6.36997 38.3336 6.61238C38.5704 6.85478 38.7508 7.13665 38.8748 7.4467C38.9988 7.75675 39.0609 8.08936 39.0552 8.4276C39.0552 8.76584 38.9988 9.09844 38.8748 9.40849C38.7508 9.71854 38.5648 10.006 38.3336 10.2485C38.0969 10.4909 37.8206 10.6825 37.5106 10.8122C37.2062 10.9418 36.8792 11.0151 36.5522 11.0208Z" fill="#5A31F4"/>
<path d="M18.0045 5.31036C17.4408 4.12652 16.3697 3.36548 14.7574 3.36548C14.2613 3.37676 13.7765 3.49514 13.3368 3.72063C12.8971 3.94613 12.5138 4.27309 12.2206 4.6677L12.1642 4.74099V0.101472C12.1642 0.101472 12.153 0.0507359 12.1361 0.0281866C12.1191 0.0112746 12.091 0 12.0628 0H9.78529C9.78529 0 9.73455 0.0112746 9.71764 0.0281866C9.70073 0.0450986 9.68945 0.0732852 9.68945 0.101472V13.4056C9.68945 13.4056 9.70073 13.4563 9.71764 13.4732C9.73455 13.4901 9.76274 13.5014 9.78529 13.5014H12.2262C12.2262 13.5014 12.277 13.4901 12.2995 13.4732C12.3164 13.4563 12.3277 13.4281 12.3277 13.4056V7.73441C12.3277 6.62949 13.0606 5.85154 14.2388 5.85154C15.5241 5.85154 15.851 6.91136 15.851 7.98809V13.4056C15.851 13.4056 15.8623 13.4563 15.8792 13.4732C15.8961 13.4901 15.9243 13.5014 15.9469 13.5014H18.3822C18.3822 13.5014 18.4329 13.4901 18.4555 13.4732C18.4724 13.4563 18.4837 13.4281 18.4837 13.4056V7.66112C18.4837 7.46382 18.4837 7.27215 18.4555 7.08612C18.416 6.47165 18.2582 5.86845 18.0045 5.31036Z" fill="#5A31F4"/>
<path d="M5.82336 7.28441C5.82336 7.28441 4.58314 6.99126 4.12652 6.87288C3.6699 6.7545 2.8694 6.50646 2.8694 5.90326C2.8694 5.30007 3.51205 5.1084 4.16598 5.1084C4.81991 5.1084 5.54713 5.26624 5.6035 5.99346C5.6035 6.02165 5.62041 6.04419 5.63732 6.06111C5.65424 6.07802 5.68242 6.08929 5.71061 6.08929L8.11775 6.07802C8.11775 6.07802 8.14593 6.07802 8.15721 6.06674C8.16848 6.06111 8.17976 6.05547 8.19103 6.04419C8.20231 6.03292 8.20794 6.02164 8.21358 6.01037C8.21358 5.9991 8.21922 5.98218 8.21358 5.97091C8.06701 3.64833 6.0263 2.81964 4.14907 2.81964C1.92233 2.80837 0.293141 4.27971 0.293141 5.90326C0.293141 7.0871 0.625743 8.19765 3.25837 8.96997C3.72063 9.10526 4.34638 9.28002 4.8932 9.43223C5.55276 9.61826 5.90792 9.89449 5.90792 10.3286C5.90792 10.8359 5.17506 11.1911 4.45349 11.1911C3.41058 11.1911 2.66645 10.8021 2.60444 10.1087C2.60444 10.0805 2.58753 10.058 2.57062 10.0411C2.55371 10.0241 2.52552 10.0129 2.50297 10.0129L0.101472 10.0241C0.101472 10.0241 0.0732852 10.0241 0.0620106 10.0298C0.0507359 10.0298 0.0394613 10.0411 0.0281866 10.0523C0.016912 10.0636 0.0112746 10.0749 0.00563732 10.0862C0.00563732 10.0974 0 10.1143 0 10.1256C0.112746 12.3185 2.22674 13.4967 4.19981 13.4967C7.13685 13.4967 8.46726 11.845 8.46726 10.2947C8.46726 9.56752 8.30378 7.91015 5.83463 7.27877L5.82336 7.28441Z" fill="#5A31F4"/>
<path d="M24.1556 2.7854C21.8781 2.7854 20.745 3.55771 19.8318 4.17782L19.8036 4.19473C19.7585 4.22856 19.7247 4.27365 19.7134 4.33003C19.7021 4.3864 19.7134 4.44277 19.736 4.49351L20.6379 6.04377C20.6548 6.07196 20.6774 6.10015 20.7056 6.11706C20.7338 6.13397 20.7676 6.15088 20.7958 6.15652C20.8296 6.16216 20.8634 6.15652 20.8916 6.15652C20.9254 6.14525 20.9536 6.13397 20.9762 6.11142L21.0495 6.05505C21.5174 5.66044 22.2671 5.13616 24.088 4.99523C25.1027 4.91631 25.9765 5.18126 26.6191 5.77882C27.3294 6.43275 27.7522 7.48693 27.7522 8.60312C27.7522 10.6551 26.5458 11.9461 24.601 11.9686C23 11.9573 21.9232 11.123 21.9232 9.89406C21.9232 9.24014 22.2164 8.8117 22.797 8.3889C22.8421 8.35508 22.8703 8.30998 22.8872 8.25924C22.8985 8.20851 22.8872 8.15213 22.8647 8.1014L22.0585 6.57368C22.0585 6.57368 22.0247 6.52295 21.9965 6.5004C21.974 6.48348 21.9458 6.46657 21.912 6.4553C21.8838 6.44402 21.85 6.44402 21.8161 6.44966C21.7823 6.44966 21.7541 6.46657 21.7259 6.48348C20.8183 7.01903 19.7021 8.00556 19.7641 9.8997C19.8374 12.3068 21.8387 14.1502 24.4431 14.2235H24.7532C27.8481 14.1221 30.0804 11.8277 30.0804 8.71023C30.0804 5.8521 27.9946 2.79104 24.1443 2.79104L24.1556 2.7854Z" fill="#5A31F4"/>
<path fill-rule="evenodd" clip-rule="evenodd" d="M46.7001 0.0339355H67.5357C68.9732 0.0339355 70.1401 1.20086 70.1401 2.63838V14.0427C70.1401 15.4802 68.9732 16.6471 67.5357 16.6471H46.7001C45.2626 16.6471 44.0957 15.4802 44.0957 14.0427V2.63838C44.0957 1.20086 45.2626 0.0339355 46.7001 0.0339355ZM51.3735 9.07057C53.1098 9.07057 54.3556 7.80217 54.3556 6.02641C54.3556 4.25065 53.1098 2.98226 51.3735 2.98226H48.3068C48.273 2.98226 48.2335 2.99917 48.211 3.02172C48.1828 3.0499 48.1715 3.08373 48.1715 3.11755V11.5397C48.1715 11.5735 48.1884 11.613 48.211 11.6356C48.2391 11.6637 48.273 11.675 48.3068 11.675H49.4624C49.4963 11.675 49.5357 11.6581 49.5583 11.6356C49.5865 11.6074 49.5977 11.5735 49.5977 11.5397V9.20586C49.5977 9.17204 49.6146 9.13258 49.6372 9.11003C49.6654 9.08184 49.6992 9.07057 49.733 9.07057H51.3735ZM51.2833 4.26193C52.2304 4.26193 52.9238 5.00606 52.9238 6.02641C52.9238 7.04677 52.2247 7.79089 51.2833 7.79089H49.733C49.6992 7.79089 49.6597 7.77398 49.6372 7.75143C49.609 7.72325 49.5977 7.68942 49.5977 7.6556V4.40286C49.5977 4.36904 49.6146 4.32958 49.6372 4.30703C49.6654 4.27884 49.6992 4.26757 49.733 4.26757H51.2833V4.26193ZM54.6939 10.0627C54.6826 9.79215 54.739 9.52155 54.8574 9.27351C54.9757 9.02547 55.1561 8.81689 55.376 8.65904C55.827 8.3208 56.5204 8.14605 57.552 8.10658L58.6456 8.06712V7.7458C58.6456 7.10314 58.2116 6.82691 57.5182 6.82691C56.8248 6.82691 56.3851 7.07495 56.278 7.4752C56.2723 7.50339 56.2498 7.52594 56.2272 7.54849C56.2047 7.5654 56.1765 7.57668 56.1427 7.57104H55.0659C55.0659 7.57104 55.0265 7.57104 55.0096 7.55976C54.9927 7.55413 54.9757 7.53722 54.9645 7.52594C54.9532 7.50903 54.9419 7.49212 54.9363 7.4752C54.9363 7.45829 54.9306 7.43574 54.9363 7.41883C55.0998 6.46612 55.889 5.73891 57.5745 5.73891C59.3616 5.73891 60.0099 6.57323 60.0099 8.16296V11.5397C60.0099 11.5397 60.0099 11.5735 59.9986 11.5905C59.993 11.6074 59.9817 11.6243 59.9704 11.6356C59.9591 11.6468 59.9422 11.6581 59.9253 11.6637C59.9084 11.6694 59.8915 11.675 59.8746 11.675H58.7866C58.7866 11.675 58.7527 11.675 58.7358 11.6637C58.7189 11.6581 58.702 11.6468 58.6907 11.6356C58.6795 11.6243 58.6682 11.6074 58.6626 11.5905C58.6569 11.5735 58.6513 11.5566 58.6513 11.5397V11.286C58.6513 11.286 58.6513 11.2409 58.6344 11.224C58.6231 11.2071 58.6062 11.1902 58.5836 11.1846C58.5611 11.1789 58.5385 11.1733 58.5216 11.1846C58.5047 11.1958 58.4822 11.2015 58.4652 11.2184C58.1383 11.5735 57.6084 11.8329 56.7684 11.8329C55.5338 11.8329 54.7108 11.1902 54.7108 10.074L54.6939 10.0627ZM58.6456 9.32988V9.07057L57.2307 9.14385C56.4865 9.18331 56.0468 9.49337 56.0468 10.012C56.0468 10.4855 56.4471 10.7449 57.1405 10.7449C58.0875 10.7449 58.6456 10.2319 58.6456 9.32988ZM61.0922 13.2478V14.2287C61.0922 14.2625 61.0979 14.2907 61.1204 14.3189C61.1373 14.3471 61.1655 14.364 61.1937 14.3753C61.3854 14.426 61.5827 14.4542 61.7856 14.4486C62.8398 14.4486 63.8038 14.0652 64.3562 12.5601L66.7803 6.08842C66.7803 6.08842 66.7916 6.04332 66.7803 6.02641C66.7803 6.00386 66.769 5.98131 66.7577 5.9644C66.7465 5.94749 66.7296 5.93058 66.707 5.9193C66.6845 5.90803 66.6676 5.90239 66.645 5.90239H65.5175C65.4893 5.90239 65.4612 5.91367 65.4386 5.93058C65.4161 5.94749 65.3992 5.97004 65.3879 5.99823L64.0518 10.0966C64.0518 10.0966 64.0236 10.1473 64.0011 10.1642C63.9785 10.1811 63.9504 10.1868 63.9222 10.1868C63.894 10.1868 63.8658 10.1755 63.8433 10.1642C63.8207 10.1473 63.8038 10.1247 63.7925 10.0966L62.2535 5.98695C62.2535 5.98695 62.2253 5.93621 62.2028 5.9193C62.1802 5.90239 62.1521 5.89675 62.1239 5.89675H61.019C61.019 5.89675 60.9739 5.90239 60.9569 5.91367C60.94 5.92494 60.9231 5.93621 60.9062 5.95876C60.8949 5.97568 60.8837 5.99823 60.8837 6.02077C60.8837 6.04332 60.8837 6.06587 60.8893 6.08279L63.1555 11.9061C63.1668 11.9343 63.1668 11.9682 63.1555 12.002L63.0822 12.2275C62.9977 12.5093 62.8229 12.7517 62.5861 12.9209C62.3494 13.09 62.0562 13.1745 61.7687 13.1576C61.5996 13.1576 61.4305 13.1407 61.2614 13.1125C61.2388 13.1125 61.2219 13.1125 61.1993 13.1125C61.1768 13.1125 61.1599 13.1294 61.143 13.1407C61.1261 13.152 61.1148 13.1689 61.1035 13.1915C61.0922 13.2084 61.0922 13.2309 61.0922 13.2535V13.2478Z" fill="#5A31F4"/>
</svg>
