<svg width="63" height="21" viewBox="0 0 63 21" fill="none" xmlns="http://www.w3.org/2000/svg">
<path fill-rule="evenodd" clip-rule="evenodd" d="M15.6963 20.4659H10.2628L6.18843 4.4646C5.99504 3.72855 5.58442 3.07783 4.98041 2.77114C3.47304 2.00041 1.81202 1.38703 0 1.07767V0.461625H8.75281C9.96083 0.461625 10.8668 1.38703 11.0178 2.46178L13.1319 14.004L18.5626 0.461625H23.8451L15.6963 20.4659ZM26.8648 20.4659H21.7334L25.9588 0.461625H31.0902L26.8648 20.4659ZM37.7295 6.00314C37.8805 4.92572 38.7865 4.30967 39.8435 4.30967C41.5045 4.15499 43.3139 4.46435 44.8239 5.23241L45.7299 0.925406C44.2199 0.309358 42.5589 0 41.0515 0C36.0711 0 32.4471 2.77088 32.4471 6.61652C32.4471 9.54208 35.0141 11.0782 36.8261 12.0036C38.7865 12.9263 39.5415 13.5424 39.3905 14.4651C39.3905 15.8492 37.8805 16.4653 36.3731 16.4653C34.5611 16.4653 32.7491 16.0039 31.0907 15.2332L30.1847 19.5429C31.9967 20.3109 33.9571 20.6203 35.7691 20.6203C41.3535 20.7723 44.8239 18.0041 44.8239 13.8491C44.8239 8.61668 37.7295 8.30999 37.7295 6.00314ZM62.7822 20.4659L58.7078 0.461625H54.3314C53.4254 0.461625 52.5194 1.07767 52.2174 2.00041L44.6726 20.4659H49.955L51.0094 17.543H57.4998L58.1038 20.4659H62.7822ZM55.0865 5.84891L56.5939 13.3882H52.3685L55.0865 5.84891Z" fill="#172B85"/>
</svg>
