<svg width="209" height="209" viewBox="0 0 209 209" fill="none" xmlns="http://www.w3.org/2000/svg">
<path d="M163.394 89.1385C165.824 72.6362 153.336 63.8408 136.129 57.8669L141.702 35.6345L128.117 32.247L122.692 53.9307L111.85 51.3443L117.345 29.5038L103.76 26.125L98.1778 48.4357L89.5391 46.398V46.3109L70.7552 41.6084L67.1413 56.1339C67.1413 56.1339 77.1994 58.5026 77.0427 58.5722C82.5376 59.9917 83.4868 63.6057 83.3301 66.4359L77.0339 91.8903L78.4534 92.3606L76.9643 92.0471L68.0818 127.638C67.4548 129.293 65.7305 131.801 61.8814 130.773C62.0382 131.017 52.0584 128.422 52.0584 128.422L45.3008 143.905L62.9787 148.303L72.6449 150.82L66.9845 173.374L80.5695 176.744L86.0819 154.434L96.9934 157.255L91.4201 179.496L105.005 182.875L110.587 160.32C133.769 164.718 151.212 162.994 158.527 142.016C164.413 125.121 158.204 115.455 146.03 109.011C154.913 107.052 161.583 101.156 163.316 89.1385H163.394ZM132.358 132.671C128.187 149.566 99.7453 140.37 90.558 138.158L98.021 108.236C107.208 110.587 136.756 115.063 132.358 132.584V132.671ZM136.521 88.9034C132.75 104.23 109.02 96.4448 101.4 94.5638L108.149 67.4547C115.856 69.3445 140.526 72.9584 136.521 88.9034Z" fill="#F7931A"/>
</svg>
