<svg width="103" height="14" viewBox="0 0 103 14" fill="none" xmlns="http://www.w3.org/2000/svg">
<g clip-path="url(#clip0_9691_3945)">
<path d="M4.23521 2.88945H0V0.314453H11.7047V2.88945H7.46947V13.6837H4.23799V2.88945H4.23521Z" fill="white"/>
<path d="M12.4668 3.10755H15.5393V4.5821C16.2224 3.32327 17.2652 2.77441 18.3693 2.77441C18.8098 2.77441 19.2113 2.89183 19.4344 3.10755V5.64432C19.0719 5.56513 18.6927 5.5269 18.2104 5.5269C16.3646 5.5269 15.5393 6.54816 15.5393 8.22204V13.6888H12.4668V3.10755Z" fill="white"/>
<path d="M27.2817 3.10742H30.3543V13.6859H27.2817V12.2715C26.5791 13.4511 25.514 14.0027 24.2092 14.0027C22.1627 14.0027 20.6543 12.7848 20.6543 10.1497V3.10742H23.7268V9.53808C23.7268 10.8952 24.2482 11.5642 25.3328 11.5642C26.5178 11.5642 27.2789 10.543 27.2789 9.18583V3.10742H27.2817Z" fill="white"/>
<path d="M41.7944 10.4799C41.7944 12.5634 39.826 13.9997 37.0155 13.9997C34.2051 13.9997 32.3175 12.82 31.916 10.2041H34.9886C35.128 11.1871 35.9533 11.7169 37.0964 11.7169C38.181 11.7169 38.7219 11.3045 38.7219 10.6546C38.7219 8.6094 32.1781 10.4389 32.1781 6.19005C32.1781 4.42059 33.6447 2.76855 36.5332 2.76855C39.1234 2.76855 41.0918 3.92908 41.393 6.60238H38.3399C38.1587 5.52104 37.5174 5.06775 36.4328 5.06775C35.6298 5.06775 35.1085 5.46097 35.1085 6.03167C35.1085 8.11515 41.7944 6.28835 41.7944 10.4744V10.4799Z" fill="white"/>
<path d="M43.7443 5.38708H42.4199V3.10699H43.7443V0.649414H46.8168V3.10699H49.0251V5.38708H46.8168V9.87079C46.8168 10.8921 47.0984 11.4628 48.4228 11.4628H49.0055V13.7237C48.6654 13.8821 47.9823 13.9995 47.1598 13.9995C44.8512 13.9995 43.7471 12.7025 43.7471 10.2449V5.38708H43.7443Z" fill="white"/>
<path d="M59.4023 4.60113C59.0203 3.28496 58.0584 2.575 56.6922 2.575C54.6234 2.575 53.4385 4.26526 53.4385 7.01775C53.4385 9.77024 54.6039 11.4223 56.6922 11.4223C57.9776 11.4223 58.9813 10.7533 59.3633 9.49444H62.776C62.0734 12.4435 59.6449 13.9973 56.7341 13.9973C52.6578 13.9973 50.1484 11.3431 50.1484 7.01775C50.1484 2.69241 52.655 0 56.7731 0C59.7034 0 62.1933 1.55374 62.776 4.60113H59.4023Z" fill="white"/>
<path d="M63.9375 8.39681C63.9375 4.79782 66.0258 2.77441 69.2378 2.77441C72.4497 2.77441 74.5576 4.93708 74.5576 8.39681C74.5576 11.8565 72.4497 14.0001 69.2378 14.0001C66.0258 14.0001 63.9375 11.8756 63.9375 8.39681ZM71.4042 8.39681C71.4042 6.35155 70.6402 5.21015 69.235 5.21015C67.8298 5.21015 67.0853 6.32971 67.0853 8.39681C67.0853 10.4639 67.8493 11.5616 69.235 11.5616C70.6207 11.5616 71.4042 10.4612 71.4042 8.39681Z" fill="white"/>
<path d="M76.1836 3.10755H79.2561V4.5821C79.9392 3.32327 80.982 2.77441 82.0861 2.77441C82.5266 2.77441 82.9281 2.89183 83.1512 3.10755V5.64432C82.7887 5.56513 82.4095 5.5269 81.9272 5.5269C80.0814 5.5269 79.2561 6.54816 79.2561 8.22204V13.6888H76.1836V3.10755Z" fill="white"/>
<path d="M89.1311 14.0001C85.777 14.0001 83.7109 11.8756 83.7109 8.39681C83.7109 4.91797 85.7993 2.77441 89.0112 2.77441C92.2232 2.77441 94.2725 4.87974 94.2725 8.33946V9.00847H86.8448C87.0065 10.6987 87.8095 11.6026 89.1339 11.6026C90.1376 11.6026 90.8207 11.1711 91.1414 10.2072H94.3533C93.7901 12.6457 91.7826 14.0028 89.1339 14.0028L89.1311 14.0001ZM86.9006 7.27451H91.0968C90.857 5.89827 90.1321 5.17192 89.0084 5.17192C87.8848 5.17192 87.1404 5.89827 86.9006 7.27451Z" fill="white"/>
<path d="M96.28 0.450556H94.9082V0H98.1926V0.450556H96.8209V3.91847H96.28V0.450556Z" fill="white"/>
<path d="M98.832 0H99.5793L100.809 2.87537L100.926 3.22762L101.049 2.87537L102.273 0H102.998V3.91847H102.457V0.63897L102.175 1.41174L101.104 3.91847H100.722L99.6517 1.40628L99.3757 0.658085V3.91847H98.8348V0H98.832Z" fill="white"/>
</g>
<defs>
<clipPath id="clip0_9691_3945">
<rect width="103" height="14" fill="white"/>
</clipPath>
</defs>
</svg>
