<svg width="103" height="14" viewBox="0 0 103 14" fill="none" xmlns="http://www.w3.org/2000/svg">
<g clip-path="url(#clip0_9683_3673)">
<path d="M4.23521 2.88902H0V0.314026H11.7047V2.88902H7.46947V13.6832H4.23799V2.88902H4.23521Z" fill="#14141E"/>
<path d="M12.4668 3.10749H15.5393V4.58204C16.2224 3.32321 17.2652 2.77435 18.3693 2.77435C18.8098 2.77435 19.2113 2.89177 19.4344 3.10749V5.64426C19.0719 5.56507 18.6927 5.52684 18.2104 5.52684C16.3646 5.52684 15.5393 6.5481 15.5393 8.22198V13.6887H12.4668V3.10749Z" fill="#14141E"/>
<path d="M27.2817 3.10748H30.3543V13.686H27.2817V12.2715C26.5791 13.4512 25.514 14.0027 24.2092 14.0027C22.1627 14.0027 20.6543 12.7849 20.6543 10.1498V3.10748H23.7268V9.53814C23.7268 10.8953 24.2482 11.5643 25.3328 11.5643C26.5178 11.5643 27.2789 10.543 27.2789 9.18589V3.10748H27.2817Z" fill="#14141E"/>
<path d="M41.7944 10.4802C41.7944 12.5637 39.826 14 37.0155 14C34.2051 14 32.3175 12.8204 31.916 10.2044H34.9886C35.128 11.1874 35.9533 11.7172 37.0964 11.7172C38.181 11.7172 38.7219 11.3048 38.7219 10.655C38.7219 8.6097 32.1781 10.4392 32.1781 6.19035C32.1781 4.4209 33.6447 2.76886 36.5332 2.76886C39.1234 2.76886 41.0918 3.92938 41.393 6.60268H38.3399C38.1587 5.52135 37.5174 5.06806 36.4328 5.06806C35.6298 5.06806 35.1085 5.46127 35.1085 6.03198C35.1085 8.11546 41.7944 6.28866 41.7944 10.4747V10.4802Z" fill="#14141E"/>
<path d="M43.7443 5.38757H42.4199V3.10748H43.7443V0.649902H46.8168V3.10748H49.0251V5.38757H46.8168V9.87128C46.8168 10.8925 47.0984 11.4632 48.4228 11.4632H49.0055V13.7242C48.6654 13.8826 47.9823 14 47.1598 14C44.8512 14 43.7471 12.703 43.7471 10.2454V5.38757H43.7443Z" fill="#14141E"/>
<path d="M59.4023 4.60113C59.0203 3.28496 58.0584 2.575 56.6922 2.575C54.6234 2.575 53.4385 4.26526 53.4385 7.01775C53.4385 9.77024 54.6039 11.4223 56.6922 11.4223C57.9776 11.4223 58.9813 10.7533 59.3633 9.49444H62.776C62.0734 12.4435 59.6449 13.9973 56.7341 13.9973C52.6578 13.9973 50.1484 11.3431 50.1484 7.01775C50.1484 2.69241 52.655 0 56.7731 0C59.7034 0 62.1933 1.55374 62.776 4.60113H59.4023Z" fill="#14141E"/>
<path d="M63.9375 8.39674C63.9375 4.79776 66.0258 2.77435 69.2378 2.77435C72.4497 2.77435 74.5576 4.93702 74.5576 8.39674C74.5576 11.8565 72.4497 14 69.2378 14C66.0258 14 63.9375 11.8756 63.9375 8.39674ZM71.4042 8.39674C71.4042 6.35149 70.6402 5.21009 69.235 5.21009C67.8298 5.21009 67.0853 6.32965 67.0853 8.39674C67.0853 10.4638 67.8493 11.5616 69.235 11.5616C70.6207 11.5616 71.4042 10.4611 71.4042 8.39674Z" fill="#14141E"/>
<path d="M76.1836 3.10749H79.2561V4.58204C79.9392 3.32321 80.982 2.77435 82.0861 2.77435C82.5266 2.77435 82.9281 2.89177 83.1512 3.10749V5.64426C82.7887 5.56507 82.4095 5.52684 81.9272 5.52684C80.0814 5.52684 79.2561 6.5481 79.2561 8.22198V13.6887H76.1836V3.10749Z" fill="#14141E"/>
<path d="M89.1311 14C85.777 14 83.7109 11.8756 83.7109 8.39674C83.7109 4.91791 85.7993 2.77435 89.0112 2.77435C92.2232 2.77435 94.2725 4.87968 94.2725 8.3394V9.00841H86.8448C87.0065 10.6987 87.8095 11.6025 89.1339 11.6025C90.1376 11.6025 90.8207 11.1711 91.1414 10.2072H94.3533C93.7901 12.6456 91.7826 14.0028 89.1339 14.0028L89.1311 14ZM86.9006 7.27445H91.0968C90.857 5.89821 90.1321 5.17186 89.0084 5.17186C87.8848 5.17186 87.1404 5.89821 86.9006 7.27445Z" fill="#14141E"/>
<path d="M96.28 0.450556H94.9082V0H98.1926V0.450556H96.8209V3.91847H96.28V0.450556Z" fill="#14141E"/>
<path d="M98.832 0H99.5793L100.809 2.87537L100.926 3.22762L101.049 2.87537L102.273 0H102.998V3.91847H102.457V0.63897L102.175 1.41174L101.104 3.91847H100.722L99.6517 1.40628L99.3757 0.658085V3.91847H98.8348V0H98.832Z" fill="#14141E"/>
</g>
<defs>
<clipPath id="clip0_9683_3673">
<rect width="103" height="14" fill="white"/>
</clipPath>
</defs>
</svg>
